PathFileType	4	(X/Y/Z)	OpenSim_Sub07_CSBaseline_Accel.trc
DataRate	CameraRate	NumFrames	NumMarkers	Units	OrigDataRate	OrigDataStartFrame	OrigNumFrames
100	100	37	8	m	100	4868	7788
Frame#	Time	torso_imu_offset_imu	pelvis_imu_offset_imu	tibia_r_imu_offset_imu	femur_r_imu_offset_imu	tibia_l_imu_offset_imu	femur_l_imu_offset_imu	toes_r_imu_offset_imu	toes_l_imu_offset_imu
				X1	Y1	Z1	X2	Y2	Z2	X3	Y3	Z3	X4	Y4	Z4	X5	Y5	Z5	X6	Y6	Z6	X7	Y7	Z7	X8		Y8	Z8	

4868	48.67000000	-8.14033944	0.68140814	6.13488105	9.06412949	0.95089780	2.13017363	9.84392101	0.28076597	-0.77127949	9.08247860	-1.36416342	0.21010524	6.99048519	-10.02138555	0.09839970	7.76372884	0.99069972	0.06263020	4.82164870	1.65864096	8.48370632	11.18488302	-1.79955038	12.40454114
4869	48.68000000	-8.33866875	0.74456526	6.14987801	9.04864040	0.83719929	1.95361840	9.74659525	0.54593692	-1.00322865	9.11515718	-1.22982502	0.23127498	7.75208512	-9.77229571	0.78329475	7.83724896	1.23991469	-0.24815255	4.90909386	1.74245353	8.51940672	12.09741469	-2.75846662	11.98277700
4870	48.69000000	-8.42742173	0.79539136	6.17329576	9.03687334	0.57404340	1.88891903	9.79060628	1.07423149	-1.16782879	9.29790806	-1.02459398	0.34977129	8.11699944	-9.39126139	0.87898930	8.39105186	1.41600462	-0.14462116	5.31172425	1.48722085	8.35720066	11.93977627	-3.32237329	11.12483051
4871	48.70000000	-8.44156313	0.82845579	6.19860653	9.05653503	0.60790838	1.86112692	9.84076289	1.43490163	-1.23109977	9.41589180	-0.78177231	0.20740007	7.99329068	-8.67031992	0.90183552	8.29385763	1.34394545	-0.24487214	5.08795029	1.38396020	8.41330203	12.03198236	-3.82674394	10.64791729
4872	48.71000000	-8.46843076	0.90024316	6.20035861	9.15495608	0.47439939	1.82375596	9.80957004	1.62344778	-1.17853158	9.38902545	-0.52984367	0.00834728	7.80128369	-6.25957038	1.81247848	8.32090722	1.42136782	-0.27254905	4.97530569	1.16461425	8.50579218	13.15135923	-2.88622076	10.74703025
4873	48.72000000	-8.51484910	0.90853939	6.22808248	9.24047564	0.45310130	1.80685186	9.95007480	1.61084640	-0.91188852	9.35726320	-0.36386114	0.02360805	8.32517917	-4.34669474	2.29997593	8.72078581	2.07959133	-0.17155661	5.03930650	1.16538112	8.48525218	14.41924395	-0.07889002	11.44554625
4874	48.73000000	-8.61178113	0.94988989	6.25000720	9.19288350	0.49613623	1.88865756	10.15820530	1.51601847	-0.56413832	9.40420673	-0.28953589	0.05240096	9.42761915	-3.42280802	2.84170736	8.17545468	2.11427891	-0.04637109	5.30119071	1.27157314	8.40595779	16.01302313	2.73663048	11.91548612
4875	48.74000000	-8.75692653	0.93653005	6.31609177	9.18597685	0.59262555	1.91894112	10.26984717	0.82655687	-0.24358129	9.46226096	-0.25839396	-0.01470440	10.42067677	-2.98820680	3.26143221	7.83306692	2.55381459	0.23838715	4.93892718	1.30360561	8.61099308	16.20457484	4.69166428	11.48779475
4876	48.75000000	-8.83805609	0.90101462	6.38134730	9.14322191	0.77465477	1.97506724	10.25725535	0.00914421	-0.15094311	9.51958129	-0.26395320	-0.10754864	10.86605776	-2.15288070	3.56751066	8.11485925	3.73416787	0.60113114	5.00105003	1.23726473	8.60087699	15.39846818	5.76098249	10.42978316
4877	48.76000000	-8.84532246	0.85541469	6.37726872	9.03836063	1.06664068	2.05487298	10.12535556	-0.72256746	0.06976780	9.55675783	-0.27564187	-0.20601526	10.47965940	-0.58791856	3.29823236	7.76000968	4.31345607	0.79418081	5.18109451	1.44303326	8.55504437	15.56279358	6.11451971	9.51989067
4878	48.77000000	-8.83050243	0.83182796	6.42927064	8.92837193	1.57434633	2.05391979	9.78054899	-1.60724471	0.23089094	9.53073511	-0.26169611	-0.30631238	11.04268214	0.88408514	2.76472951	7.58023089	5.46269820	0.95361875	5.11091527	1.56054143	8.47777750	15.99454089	5.96823147	9.15710304
4879	48.78000000	-8.79992851	0.77909899	6.42245611	8.82388932	2.14415362	2.07422729	9.55250876	-2.22192299	0.36345295	9.38610739	-0.29085505	-0.36100747	11.60584403	1.41483367	2.72782775	7.43184759	6.81448205	1.33204203	5.00193451	1.42728341	8.57201231	15.72576366	4.90068881	8.22189540
4880	48.79000000	-8.75647743	0.81053566	6.43173362	8.94673405	2.52937144	1.84964649	9.54860419	-2.56946396	0.48348568	9.18827558	-0.44742613	-0.34037974	10.82056890	0.76186546	2.54746888	7.28290319	7.81579256	1.13557137	5.07744679	1.32475524	8.48313929	14.95088944	3.34595507	6.75026117
4881	48.80000000	-8.73625964	0.81237774	6.33429731	9.08443542	2.69251722	1.70008550	9.63435237	-2.51038470	0.46777311	8.90367252	-0.75855030	-0.33912998	10.57255229	0.38665587	1.57291196	6.83501495	8.92058326	0.59867931	5.00853706	1.39857308	8.55280406	14.80149894	0.71400812	6.07483722
4882	48.81000000	-8.72053138	0.81073699	6.27800666	9.21027772	2.67677575	1.47294213	9.93572066	-2.18522940	0.32566253	8.79435851	-0.98729056	-0.29802478	11.20207223	-0.60374783	0.13433880	5.78217288	9.34295359	0.72660004	4.98146100	1.29877551	8.50015884	15.14767214	-4.43692404	5.55523217
4883	48.82000000	-8.82026036	0.83038390	6.21112948	9.35876208	2.47834321	1.23360195	10.12271636	-1.16538529	0.14558756	8.79588978	-0.83258454	-0.16873566	11.95145264	-3.34943232	-0.89814788	5.75012756	9.60314316	0.66064613	5.05981825	1.04693824	8.37168740	16.54544640	-5.23385271	5.57200755
4884	48.83000000	-8.94879283	0.85482142	6.15775123	9.38381405	2.27329312	0.94336152	10.22780975	-0.03104545	-0.04500241	8.79551234	-0.58152285	-0.18014214	12.13193179	-5.76269761	-2.80273960	5.46824532	8.86177041	0.52260242	4.71596376	1.19142377	8.80368570	17.45560886	-2.48268968	7.19387093
4885	48.84000000	-9.08246687	0.86508796	6.14930810	9.44166807	2.01832581	0.72583084	10.39568129	1.10775819	0.10421300	9.01710113	-0.52789321	-0.45063193	11.65337384	-6.54922937	-3.61048540	5.85219150	7.78242322	0.54385774	4.47579377	1.12921809	8.81652994	16.91581513	-3.00470133	5.69149434
4886	48.85000000	-9.15363143	0.92899948	6.12080707	9.60250876	1.75594885	0.50130119	10.55288313	1.87567411	0.54191017	9.45513592	-0.38629737	-0.60654246	10.58953117	-5.35092691	-1.98587646	6.96492962	7.07494697	1.37521004	4.81074102	1.20272978	8.68084283	15.52360309	-2.58487667	4.05915974
4887	48.86000000	-9.17014801	0.91853304	6.13474684	9.89061205	1.60648694	0.64882771	10.86787680	1.28801391	0.60018626	9.84601388	-0.09372077	-0.40708934	9.29607559	-3.75387696	0.68017501	8.03882634	5.87767579	2.08185312	5.41883153	1.64658031	8.49424848	14.11114370	-1.43568093	2.20116767
4888	48.87000000	-9.32234620	0.88115562	6.16760780	10.38692724	1.33342442	0.98769377	10.77526395	-0.03396057	0.64440679	10.04195877	0.26506344	-0.11081834	8.67161444	-2.72144020	3.42200115	8.69866956	4.59118497	0.96013827	4.81605177	2.19198585	9.13039051	12.74014150	0.17509360	1.06075723
4889	48.88000000	-9.50257690	0.90795881	6.19094227	10.69668035	1.27208832	1.04355638	10.46006132	-0.66505471	0.35483051	10.47937873	0.45621322	0.15613427	8.41982711	-1.51001773	4.77425469	8.54297504	3.02142138	0.35069145	4.55732680	1.53624679	9.20472779	12.03862828	0.74015425	0.24917028
4890	48.89000000	-9.73961636	0.94782112	6.40936971	10.90851985	1.06852443	1.79170506	10.46446939	-1.30977135	0.43373370	10.74298906	0.38648391	0.24261927	8.14848675	-0.77541660	4.49604948	8.62641651	2.41552361	-0.02044634	4.71808861	1.74214364	9.11742121	10.31210438	0.96075476	0.16779590
4891	48.90000000	-10.11859917	0.93473049	6.64333783	11.37469120	0.96250292	2.80664792	10.35336838	-1.04944655	0.75795658	10.48345068	0.09328965	0.11626965	8.62665079	-0.72999350	3.36497354	8.41653879	2.72006555	-1.05594864	4.97939111	1.74111161	8.88356048	6.62952335	4.74231813	-3.76391505
4892	48.91000000	-10.19933108	0.80810549	6.84637198	11.52886458	0.53553497	3.26931667	10.52084033	-0.76289037	0.22206494	10.02538104	-0.26499322	-0.06629750	10.95174969	-0.25581232	1.38709023	7.79480334	3.51029254	-1.57769610	4.76243691	1.71228453	9.10462519	10.54646852	2.58117264	-13.96882896
4893	48.92000000	-10.48743475	0.76140116	7.21389001	11.19848214	0.05661682	3.15968863	10.93098366	-0.68229126	0.07051721	9.73983254	-0.49824662	-0.14399393	13.10546323	0.85585704	0.00344819	9.12503102	4.77279269	-0.88597217	4.48835495	1.20200111	9.26418595	16.04531284	-5.86107746	-4.27603503
4894	48.93000000	-10.95632368	0.70841375	7.43711054	10.64213711	-0.40817747	3.18477220	11.19652413	-0.17235418	0.76343364	9.57774625	-0.61617808	-0.31089155	13.49737960	-0.77278807	-0.06375831	11.39939571	5.33589195	0.15108445	4.57858666	1.10834958	9.26953665	14.85132082	2.94048978	21.19818135
4895	48.94000000	-10.98638154	0.67662253	7.40326332	10.82992579	-0.26330810	3.73017741	11.44681470	0.86170834	1.62092055	9.61416184	-0.75285922	-0.52951133	12.37085968	-3.25389880	-1.87507143	13.07069152	6.56259348	0.68295615	4.50847977	1.49920591	9.23670644	9.85672536	0.94290091	18.87028807
4896	48.95000000	-10.54272757	0.60443144	7.25256685	11.29022847	0.16889124	4.19127212	11.57324564	1.00707970	1.91445121	9.84140758	-1.02385823	-0.68160184	10.72149885	-1.05474525	-3.72484222	13.59183607	6.98560402	2.12011028	4.60188309	1.30909729	9.52765246	-2.76942023	-9.97924589	10.14168459
4897	48.96000000	-10.27214082	0.58403226	7.08124094	11.21333977	0.47610944	4.00326962	11.86363192	0.14588301	2.17681730	10.05462487	-1.17125838	-0.72346464	11.48271765	2.85378894	-1.32776637	12.96150219	4.62857605	4.02434657	4.49234316	0.99975309	9.90909442	3.76806869	-5.44620041	11.68050281
4898	48.97000000	-10.49878664	0.66455773	7.01838137	10.48878131	0.74130671	3.74329518	12.29420334	-0.23173469	2.85451142	10.13814952	-1.16449007	-0.70613989	13.07187981	3.34279230	3.13953436	12.58506740	2.31422099	4.23475920	4.63649428	0.81699744	9.92811671	15.46756277	3.38903894	16.22368249
4899	48.98000000	-10.72582572	0.66977778	6.88872387	9.92501206	1.38874563	3.69710851	12.70594982	0.43713694	3.73711555	9.97469761	-1.45701633	-0.57057270	13.11911262	3.43700168	6.45263991	11.22843840	2.46048068	1.59343411	4.47063115	0.57354864	10.34863584	20.26005450	5.36701646	16.37042696
4900	48.99000000	-10.50458892	0.50755621	6.70122933	9.80343179	2.29029229	3.71110807	13.17649064	1.21307474	3.62538991	9.77087965	-2.07846689	-0.19050191	13.23639572	3.48830801	6.18432161	8.97396644	4.60298634	-1.59038503	4.82468149	0.86824213	10.26635969	15.62656757	3.73823493	15.22607044
4901	49	-9.97477670	0.32297254	6.42465886	9.90355148	2.69741954	3.59668728	13.78016866	1.73593302	2.06830628	9.65605160	-2.58874196	0.31204008	13.21533491	2.31474896	4.17837159	8.51389776	4.97416612	-2.35601684	4.15194858	1.21514429	10.56675169	6.22261750	0.21885284	11.68930256
4902	49.01000000	-9.68225026	0.22255571	6.17563102	9.83280571	2.57971099	3.67212425	14.51237922	1.50956132	0.67809158	9.61211735	-2.72127168	0.65419893	11.43762607	-0.38025314	2.70059206	8.76160992	2.18342194	-1.54754941	3.99506024	0.53079273	10.76818268	4.92018171	1.52504591	11.66981893
4903	49.02000000	-9.75252057	0.20294141	6.11973797	9.77936435	2.25177394	3.82152892	14.59323765	0.48025180	0.13777567	9.67268071	-2.54136252	0.72412143	9.56938947	-3.12573300	0.96747591	9.11041897	0.78971775	-2.04485216	4.10200607	0.97402568	10.71281392	10.26285811	3.11974119	12.86607914
4904	49.03000000	-9.78895413	0.11751411	6.06772381	9.80258476	1.74182884	4.03600417	13.90908935	0.44771730	-0.04365707	10.34490079	-2.25743966	0.85536377	8.06555843	-4.57077358	-0.40425940	9.56787202	0.87681281	-2.79222205	4.57498063	0.12459089	11.38154551	7.96003548	1.60324514	10.62166807
